<?xml version="1.0" encoding="utf-8"?>
<!-- Generator: Adobe Illustrator 25.2.0, SVG Export Plug-In . SVG Version: 6.00 Build 0)  -->
<svg version="1.1" id="Layer_1" xmlns="http://www.w3.org/2000/svg" xmlns:xlink="http://www.w3.org/1999/xlink" x="0px" y="0px"
	 viewBox="0 0 89.6 63.8" style="enable-background:new 0 0 89.6 63.8;" xml:space="preserve">
<style type="text/css">
	.st0{fill:#B03CE3;}
	.st1{fill:#FFFFFF;}
</style>
<g>
	<g>
		<g>
			<path class="st0" d="M73.3,54.2H57.4c-3.9,0-7-3.3-7-7.4V0.5h7.4v46.4h15V29.2h-15v-7.4h15.4c3.9,0,7,3.3,7,7.4v17.7
				C80.3,50.9,77.1,54.2,73.3,54.2z"/>
		</g>
		<g>
			<path class="st1" d="M73.3,53.6H57.4c-3.6,0-6.5-3.1-6.5-6.8V0.5h6.4v46.4c0,0.3,0.1,0.4,0.2,0.5h15.8c0.1-0.1,0.2-0.2,0.2-0.5
				V29.1c0-0.3-0.1-0.4-0.2-0.5H57.8v-6.4h15.4c3.6,0,6.5,3.1,6.5,6.8v17.7C79.8,50.6,76.8,53.6,73.3,53.6z"/>
		</g>
		<g>
			<path d="M73.3,53.1H57.4c-3.3,0-5.9-2.8-5.9-6.3V0.5h5.3v46.4c0,0.6,0.3,1,0.6,1h15.9c0.3,0,0.6-0.4,0.6-1V29.1
				c0-0.6-0.4-1-0.6-1H57.8v-5.3h15.4c3.3,0,5.9,2.8,5.9,6.3v17.7C79.2,50.3,76.6,53.1,73.3,53.1z"/>
		</g>
		<g>
			<g>
				<rect x="53.9" y="0.5" class="st1" width="0.4" height="1.1"/>
			</g>
			<g>
				<path class="st1" d="M57.4,50.7c-0.5,0-0.9-0.1-1.4-0.3l0.2-0.3c0.4,0.2,0.8,0.3,1.2,0.3l0,0h0.8v0.4h-0.8
					C57.4,50.7,57.4,50.7,57.4,50.7z M73.3,50.7v-0.4l0,0c0.7,0,1.3-0.2,1.9-0.7l0.2,0.3C74.8,50.4,74,50.7,73.3,50.7z M71.1,50.7
					H69v-0.4h2.1V50.7z M66.8,50.7h-2.1v-0.4h2.1V50.7z M62.5,50.7h-2.1v-0.4h2.1V50.7z M54.4,48.8c-0.3-0.6-0.5-1.3-0.5-2v-0.2h0.4
					v0.2c0,0.6,0.2,1.3,0.5,1.8L54.4,48.8z M76.6,48l-0.4-0.1c0.1-0.4,0.2-0.7,0.2-1.1v-1h0.4v1C76.8,47.2,76.7,47.6,76.6,48z
					 M54.3,44.5h-0.4v-2.1h0.4V44.5z M76.8,43.7h-0.4v-2.1h0.4V43.7z M54.3,40.2h-0.4v-2.1h0.4V40.2z M76.8,39.4h-0.4v-2.1h0.4V39.4
					z M54.3,35.9h-0.4v-2.1h0.4V35.9z M76.8,35.1h-0.4V33h0.4V35.1z M54.3,31.6h-0.4v-2.1h0.4V31.6z M76.8,30.8h-0.4v-1.7
					c0-0.2,0-0.3,0-0.5h0.4c0,0.2,0,0.3,0,0.5V30.8z M54.3,27.3h-0.4v-2.1h0.4V27.3z M75.6,26.8c-0.4-0.6-1-0.9-1.7-1.1l0.1-0.4
					c0.7,0.2,1.4,0.6,1.9,1.2L75.6,26.8z M71.8,25.7h-2.1v-0.4h2.1V25.7z M67.5,25.7h-2.1v-0.4h2.1V25.7z M63.2,25.7h-2.1v-0.4h2.1
					V25.7z M54.3,23h-0.4v-2.1h0.4V23z M54.3,18.7h-0.4v-2.1h0.4V18.7z M54.3,14.4h-0.4v-2.1h0.4V14.4z M54.3,10.1h-0.4V8h0.4V10.1z
					 M54.3,5.8h-0.4V3.7h0.4V5.8z"/>
			</g>
			<g>
				<rect x="57.8" y="25.3" class="st1" width="1.1" height="0.4"/>
			</g>
		</g>
		<g>
			<g>
				<path class="st0" d="M45.9,28.1l-0.1,26.1h-7L39,29h-7.5v11h-7V29h-7.3l0.1,25.2h-7V28.1c0-1.6,0.6-3.1,1.8-4.3
					c1.1-1.1,2.6-1.8,4.3-1.8H40c1.6,0,3.1,0.6,4.3,1.8C45.3,24.9,45.9,26.5,45.9,28.1z"/>
			</g>
		</g>
	</g>
	<g>
		<path class="st0" d="M15.4,58.3l0.8,0.8v4.2h-1v-3.8L15,59.3h-1.1l-0.2,0.2v3.8h-1v-3.8l-0.2-0.2h-1.1l-0.2,0.2v3.8h-1v-4.2
			l0.8-0.8h1.9l0.3,0.3l0.3-0.3H15.4z"/>
		<path class="st0" d="M20.5,59.1v4.2h-1v-1.8H18v1.8h-1v-4.2l0.8-0.8h1.9L20.5,59.1z M19.4,59.5l-0.2-0.2h-1.1L18,59.5v1.1h1.5
			v-1.1H19.4z"/>
		<path class="st0" d="M24,58.3l0.8,0.8v4.2h-1v-3.8l-0.2-0.2h-1.1l-0.2,0.2v3.8h-1v-4.2l0.8-0.8H24z"/>
		<path class="st0" d="M28.2,58.3l0.8,0.8v0.7h-1v-0.3l-0.2-0.2h-1.1l-0.2,0.2v1.1h1.3v1h-1.3v1.8h-1v-4.2l0.8-0.8L28.2,58.3
			L28.2,58.3z"/>
		<path class="st0" d="M31.3,61.6h-0.6v1.8h-1v-4.2l0.8-0.8h1.9l0.8,0.8v1.6l-0.8,0.8l0.8,1.8h-1.1L31.3,61.6z M30.8,60.4l0.2,0.2
			h1.1l0.2-0.2v-0.9l-0.2-0.2H31l-0.2,0.2V60.4z"/>
		<path class="st0" d="M36.8,58.3l0.8,0.8v0.7h-1v-0.3l-0.2-0.2h-1.1l-0.2,0.2v1.1h1.3v1h-1.3v0.6l0.2,0.2h1.1l0.2-0.2v-0.3h1v0.7
			l-0.8,0.8h-1.9L34,62.5v-3.4l0.8-0.8H36.8z"/>
		<path class="st0" d="M41.8,62.5L41,63.4h-2.2l-0.5-0.5v-0.5h0.5v-3h-0.5v-0.5l0.5-0.5H41l0.8,0.8V62.5z M40.8,59.5l-0.2-0.2h-0.8
			v3h0.8l0.2-0.2V59.5z"/>
		<path class="st0" d="M50.3,60.5L50,60.8l0.3,0.3v1.4l-0.8,0.8h-2.2l-0.5-0.5v-0.5h0.5v-3h-0.5v-0.5l0.5-0.5h2.2l0.8,0.8V60.5z
			 M49.3,59.5l-0.2-0.2h-0.8v1h0.8l0.2-0.2V59.5z M49.3,61.5l-0.2-0.2h-0.8v1h0.8l0.2-0.2V61.5z"/>
		<path class="st0" d="M54.6,59.1v4.2h-1v-1.8h-1.5v1.8h-1v-4.2l0.8-0.8h1.9L54.6,59.1z M53.6,59.5l-0.2-0.2h-1.1l-0.2,0.2v1.1h1.5
			V59.5z"/>
		<path class="st0" d="M57,61.6h-0.6v1.8h-1v-4.2l0.8-0.8h1.9l0.8,0.8v1.6l-0.8,0.8l0.8,1.8h-1.1L57,61.6z M56.4,60.4l0.2,0.2h1.1
			l0.2-0.2v-0.9l-0.2-0.2h-1.1l-0.2,0.2V60.4z"/>
		<path class="st0" d="M63.1,59.1v4.2h-1v-1.8h-1.5v1.8h-1v-4.2l0.8-0.8h1.9L63.1,59.1z M62.1,59.5l-0.2-0.2h-1.1l-0.2,0.2v1.1h1.5
			V59.5z"/>
		<path class="st0" d="M67.4,60.5l-0.3,0.3l0.3,0.3v1.4l-0.8,0.8h-2.2l-0.5-0.5v-0.5h0.5v-3h-0.5v-0.5l0.5-0.5h2.2l0.8,0.8V60.5z
			 M66.4,59.5l-0.2-0.2h-0.8v1h0.8l0.2-0.2V59.5z M66.4,61.5l-0.2-0.2h-0.8v1h0.8l0.2-0.2V61.5z"/>
		<path class="st0" d="M71.7,59.1v4.2h-1v-1.8h-1.5v1.8h-1v-4.2l0.8-0.8h1.9L71.7,59.1z M70.7,59.5l-0.2-0.2h-1.1l-0.2,0.2v1.1h1.5
			C70.7,60.6,70.7,59.5,70.7,59.5z"/>
		<path class="st0" d="M74,61.6h-0.6v1.8h-1v-4.2l0.8-0.8h1.9l0.8,0.8v1.6l-0.8,0.8l0.8,1.8h-1.1L74,61.6z M73.5,60.4l0.2,0.2h1.1
			l0.2-0.2v-0.9l-0.2-0.2h-1.1l-0.2,0.2V60.4z"/>
		<path class="st0" d="M80.2,59.1v4.2h-1v-1.8h-1.5v1.8h-1v-4.2l0.8-0.8h1.9L80.2,59.1z M79.2,59.5L79,59.3h-1.1l-0.2,0.2v1.1h1.5
			C79.2,60.6,79.2,59.5,79.2,59.5z"/>
	</g>
</g>
</svg>
