<svg id="Layer_1" data-name="Layer 1" xmlns="http://www.w3.org/2000/svg" width="98" height="88.0571" viewBox="0 0 98 88.0571"><defs><style>.cls-1{fill:#fff;}</style></defs><path class="cls-1" d="M89.3371,81.149H67.0778a10.0491,10.0491,0,0,1-9.8-10.36V5.9714h10.36V70.9293H88.6371V46.15H67.6378v-10.36H89.1971a10.0491,10.0491,0,0,1,9.8,10.36V70.9293A9.8988,9.8988,0,0,1,89.3371,81.149Z" transform="translate(-1 -5.9714)"/><path class="cls-1" d="M89.3371,80.309H67.0778a9.3572,9.3572,0,0,1-9.1-9.52V5.9714h8.96V70.9293a.8227.8227,0,0,0,.28.7H89.3371a.8227.8227,0,0,0,.28-.7V46.01a.8223.8223,0,0,0-.28-.7H67.6378V36.35H89.1971a9.3573,9.3573,0,0,1,9.1,9.52V70.6493A9.1939,9.1939,0,0,1,89.3371,80.309Z" transform="translate(-1 -5.9714)"/><path d="M89.3371,79.609H67.0778c-4.62,0-8.26-3.92-8.26-8.82V5.9714h7.42V70.9293c0,.84.42,1.4.84,1.4H89.3371c.42,0,.84-.56.84-1.4V46.01c0-.84-.56-1.4-.84-1.4H67.6378V37.19H89.1971c4.62,0,8.26,3.92,8.26,8.82V70.7893A8.3,8.3,0,0,1,89.3371,79.609Z" transform="translate(-1 -5.9714)"/><rect class="cls-1" x="61.178" width="0.56" height="1.5399"/><path class="cls-1" d="M67.0778,76.2491a4.9424,4.9424,0,0,1-1.96-.42l.28-.42a3.7276,3.7276,0,0,0,1.68.42h1.12v.56h-1.12Zm22.2593,0v-.56h0a3.927,3.927,0,0,0,2.66-.98l.28.42A4.8148,4.8148,0,0,1,89.3371,76.2491Zm-3.08,0h-2.94v-.56h2.94Zm-6.02,0h-2.94v-.56h2.94Zm-6.02,0h-2.94v-.56h2.94Zm-11.34-2.66a6.3719,6.3719,0,0,1-.7-2.8v-.28h.56v.28a5.239,5.239,0,0,0,.7,2.52Zm31.079-1.12-.56-.14a5.9539,5.9539,0,0,0,.28-1.54v-1.4h.56v1.4A7.0219,7.0219,0,0,1,93.957,72.4693Zm-31.219-4.9h-.56v-2.94h.56Zm31.499-1.12h-.56V63.51h.56Zm-31.499-4.9h-.56V58.61h.56Zm31.499-1.12h-.56V57.49h.56Zm-31.499-4.9h-.56V52.59h.56Zm31.499-1.12h-.56V51.47h.56Zm-31.499-4.9h-.56V46.57h.56Zm31.499-1.12h-.56V45.31h.56v3.08Zm-31.499-4.9h-.56V40.55h.56Zm29.819-.7a3.9663,3.9663,0,0,0-2.38-1.54l.14-.56a5.4123,5.4123,0,0,1,2.66,1.68Zm-5.32-1.54h-2.94v-.56h2.94Zm-6.02,0h-2.94v-.56h2.94Zm-6.02,0h-2.94v-.56h2.94Zm-12.46-3.78h-.56v-2.94h.56Zm0-6.02h-.56v-2.94h.56Zm0-6.02h-.56v-2.94h.56Zm0-6.02h-.56v-2.94h.56Zm0-6.02h-.56v-2.94h.56Z" transform="translate(-1 -5.9714)"/><rect class="cls-1" x="66.6378" y="34.7189" width="1.5399" height="0.56"/><path class="cls-1" d="M50.9784,44.61l-.14,36.5388h-9.8l.28-35.2789h-10.5V61.27h-9.8V45.87H10.8l.14,35.2789H1.14V44.61a8.3684,8.3684,0,0,1,2.52-6.02,8.46,8.46,0,0,1,6.02-2.52H42.7186a8.368,8.368,0,0,1,6.02,2.52A9.1251,9.1251,0,0,1,50.9784,44.61Z" transform="translate(-1 -5.9714)"/><path class="cls-1" d="M8.28,86.8888l1.12,1.12v5.88H8v-5.32l-.28-.28H6.18l-.28.28v5.32H4.5v-5.32l-.28-.28H2.68l-.28.28v5.32H1v-5.88l1.12-1.12H4.78l.42.42.42-.42Z" transform="translate(-1 -5.9714)"/><path class="cls-1" d="M15.42,88.0088v5.88h-1.4v-2.52h-2.1v2.52h-1.4v-5.88l1.12-1.12H14.3Zm-1.54.56-.28-.28H12.06l-.14.28v1.54h2.1v-1.54Z" transform="translate(-1 -5.9714)"/><path class="cls-1" d="M20.3194,86.8888l1.12,1.12v5.88h-1.4v-5.32l-.28-.28h-1.54l-.28.28v5.32h-1.4v-5.88l1.12-1.12Z" transform="translate(-1 -5.9714)"/><path class="cls-1" d="M26.1992,86.8888l1.12,1.12v.98h-1.4v-.42l-.28-.28h-1.54l-.28.28v1.54h1.82v1.4h-1.82v2.52h-1.4v-5.88l1.12-1.12h2.66Z" transform="translate(-1 -5.9714)"/><path class="cls-1" d="M30.539,91.5086h-.84v2.52h-1.4v-5.88l1.12-1.12h2.66l1.12,1.12v2.24l-1.12,1.12,1.12,2.52h-1.54Zm-.7-1.68.28.28h1.54l.28-.28v-1.26l-.28-.28h-1.54l-.28.28Z" transform="translate(-1 -5.9714)"/><path class="cls-1" d="M38.2388,86.8888l1.12,1.12v.98h-1.4v-.42l-.28-.28h-1.54l-.28.28v1.54h1.82v1.4h-1.82v.84l.28.28h1.54l.28-.28v-.42h1.4v.98l-1.12,1.12h-2.66l-1.26-1.26v-4.76l1.12-1.12Z" transform="translate(-1 -5.9714)"/><path class="cls-1" d="M45.2386,92.7686l-1.12,1.26h-3.08l-.7-.7v-.7h.7v-4.2h-.7v-.7l.7-.7h3.08l1.12,1.12Zm-1.4-4.2-.28-.28h-1.12v4.2h1.12l.28-.28Z" transform="translate(-1 -5.9714)"/><path class="cls-1" d="M57.1382,89.9687l-.42.42.42.42v1.96l-1.12,1.12h-3.08l-.7-.7v-.7h.7v-4.2h-.7v-.7l.7-.7h3.08l1.12,1.12Zm-1.4-1.4-.28-.28h-1.12v1.4h1.12l.28-.28Zm0,2.8-.28-.28h-1.12v1.4h1.12l.28-.28Z" transform="translate(-1 -5.9714)"/><path class="cls-1" d="M63.158,88.0088v5.88h-1.4v-2.52h-2.1v2.52h-1.4v-5.88l1.12-1.12h2.66Zm-1.4.56-.28-.28h-1.54l-.28.28v1.54h2.1Z" transform="translate(-1 -5.9714)"/><path class="cls-1" d="M66.5179,91.5086h-.84v2.52h-1.4v-5.88l1.12-1.12h2.66l1.12,1.12v2.24l-1.12,1.12,1.12,2.52h-1.54Zm-.84-1.68.28.28h1.54l.28-.28v-1.26l-.28-.28h-1.54l-.28.28Z" transform="translate(-1 -5.9714)"/><path class="cls-1" d="M75.0576,88.0088v5.88h-1.4v-2.52h-2.1v2.52h-1.4v-5.88l1.12-1.12h2.66Zm-1.4.56-.28-.28h-1.54l-.28.28v1.54h2.1Z" transform="translate(-1 -5.9714)"/><path class="cls-1" d="M81.0774,89.9687l-.42.42.42.42v1.96l-1.12,1.12h-3.08l-.7-.7v-.7h.7v-4.2h-.7v-.7l.7-.7h3.08l1.12,1.12Zm-1.4-1.4-.28-.28h-1.12v1.4h1.12l.28-.28Zm0,2.8-.28-.28h-1.12v1.4h1.12l.28-.28Z" transform="translate(-1 -5.9714)"/><path class="cls-1" d="M87.0972,88.0088v5.88h-1.4v-2.52h-2.1v2.52h-1.4v-5.88l1.12-1.12h2.66Zm-1.4.56-.28-.28h-1.54l-.28.28v1.54h2.1Z" transform="translate(-1 -5.9714)"/><path class="cls-1" d="M90.3171,91.5086h-.84v2.52h-1.4v-5.88l1.12-1.12h2.66l1.12,1.12v2.24l-1.12,1.12,1.12,2.52h-1.54Zm-.7-1.68.28.28h1.54l.28-.28v-1.26l-.28-.28h-1.54l-.28.28Z" transform="translate(-1 -5.9714)"/><path class="cls-1" d="M98.9968,88.0088v5.88h-1.4v-2.52h-2.1v2.52h-1.4v-5.88l1.12-1.12h2.66Zm-1.4.56-.28-.28h-1.54l-.28.28v1.54h2.1Z" transform="translate(-1 -5.9714)"/></svg>